<svg width="1024" height="1024" viewBox="0 0 1024 1024" fill="none" xmlns="http://www.w3.org/2000/svg">
  <rect width="1024" height="1024" rx="128" fill="#3E7C4A"/>
  <circle cx="512" cy="400" r="120" fill="#F8FBF5"/>
  <path d="M392 400C392 300 472 220 572 220C672 220 752 300 752 400V520C752 620 672 700 572 700C472 700 392 620 392 520V400Z" fill="#7BA05B"/>
  <circle cx="512" cy="380" r="80" fill="#4A6741"/>
  <path d="M480 320C480 280 512 248 552 248C592 248 624 280 624 320V360C624 400 592 432 552 432C512 432 480 400 480 360V320Z" fill="#F8FBF5"/>
  <path d="M440 480C440 460 456 444 476 444C496 444 512 460 512 480V540C512 560 496 576 476 576C456 576 440 560 440 540V480Z" fill="#F8FBF5"/>
  <path d="M552 480C552 460 568 444 588 444C608 444 624 460 624 480V540C624 560 608 576 588 576C568 576 552 560 552 540V480Z" fill="#F8FBF5"/>
  <path d="M480 640C480 620 496 604 516 604C536 604 552 620 552 640V680C552 700 536 716 516 716C496 716 480 700 480 680V640Z" fill="#F8FBF5"/>
  <path d="M512 640C512 620 528 604 548 604C568 604 584 620 584 640V680C584 700 568 716 548 716C528 716 512 700 512 680V640Z" fill="#F8FBF5"/>
  <text x="512" y="800" text-anchor="middle" fill="#F8FBF5" font-family="Arial, sans-serif" font-size="48" font-weight="bold">GANADERO</text>
  <text x="512" y="860" text-anchor="middle" fill="#F8FBF5" font-family="Arial, sans-serif" font-size="48" font-weight="bold">DIGITAL</text>
</svg>
